<?xml version="1.0" standalone="no"?><!DOCTYPE svg PUBLIC "-//W3C//DTD SVG 1.1//EN" "http://www.w3.org/Graphics/SVG/1.1/DTD/svg11.dtd"><svg t="1488255633400" class="icon" style="" viewBox="0 0 1024 1024" version="1.1" xmlns="http://www.w3.org/2000/svg" p-id="16417" xmlns:xlink="http://www.w3.org/1999/xlink" width="32" height="32"><defs><style type="text/css"></style></defs><path d="M512 62.279439c-197.439768 0-357.478717 160.927179-357.478717 359.443465 0 198.523449 280.135188 502.33385 280.135188 502.33385 42.719964 50.130747 112.609731 50.395784 154.910139-0.265036 0 0 279.912108-303.547411 279.912108-502.06779C869.478717 223.206618 709.436698 62.279439 512 62.279439L512 62.279439 512 62.279439M512 576.517409c-91.354638 0-165.380608-74.439386-165.380608-166.278047s74.026994-166.283164 165.380608-166.283164c91.338265 0 165.367305 74.444503 165.367305 166.283164S603.338265 576.517409 512 576.517409L512 576.517409 512 576.517409M512 576.517409" p-id="16418" fill="#707070"></path></svg>