<?xml version="1.0" standalone="no"?><!DOCTYPE svg PUBLIC "-//W3C//DTD SVG 1.1//EN" "http://www.w3.org/Graphics/SVG/1.1/DTD/svg11.dtd"><svg t="1488267098704" class="icon" style="" viewBox="0 0 1031 1024" version="1.1" xmlns="http://www.w3.org/2000/svg" p-id="6689" xmlns:xlink="http://www.w3.org/1999/xlink" width="32.21875" height="32"><defs><style type="text/css"></style></defs><path d="M535.579021 91.88164 40.286542 259.795954c-16.45681 5.579065-27.528983 21.023826-27.528983 38.400588l0 0c0 16.977673 10.576893 32.157397 26.503631 38.037315l435.358459 160.733775c8.451486 3.120061 17.702174 3.337002 26.28976 0.61603l479.921397-152.053068c16.850783-5.338588 28.300556-20.977777 28.300556-38.653345l0-7.020904c0-16.532535-10.036587-31.40936-25.366737-37.598316L563.77827 92.683912C554.777269 89.050152 544.771381 88.765673 535.579021 91.88164z" p-id="6690" fill="#707070"></path><path d="M955.852924 294.41645l23.653723 0 0 233.707786-23.653723 0 0-233.707786Z" p-id="6691" fill="#707070"></path><path d="M225.582735 480.653061l254.286474 85.136006c4.339842 1.453095 9.020444 1.537006 13.409404 0.242524l294.03271-86.773296c14.305821-4.222161 28.649504 6.500041 28.649504 21.416775l0 331.287195c0 10.422374-7.210215 19.458167-17.371646 21.771863L493.821989 923.127591c-4.028757 0.916882-8.232498 0.698918-12.143575-0.63138l-270.370801-91.908246c-9.054213-3.078105-15.142885-11.57871-15.142885-21.141506L196.164728 501.827313C196.163705 486.573911 211.118302 475.810776 225.582735 480.653061z" p-id="6692" fill="#707070"></path><path d="M940.547333 517.16565l62.612013 0 0 74.601068-62.612013 0 0-74.601068Z" p-id="6693" fill="#707070"></path><path d="M923.851069 580.387553l90.786703 0 0 179.548282-90.786703 0 0-179.548282Z" p-id="6694" fill="#707070"></path></svg>