<?xml version="1.0" standalone="no"?><!DOCTYPE svg PUBLIC "-//W3C//DTD SVG 1.1//EN" "http://www.w3.org/Graphics/SVG/1.1/DTD/svg11.dtd"><svg t="1488615071146" class="icon" style="" viewBox="0 0 1024 1024" version="1.1" xmlns="http://www.w3.org/2000/svg" p-id="12355" xmlns:xlink="http://www.w3.org/1999/xlink" width="64" height="64"><defs><style type="text/css"></style></defs><path d="M512.00512 196.15232c-220.53376 0-411.68384 128.39424-505.59488 315.8528 93.91104 187.47392 285.06112 315.84256 505.59488 315.84256 220.52864 0 411.63776-128.36864 505.58464-315.84256-93.91104-187.45856-285.056-315.8528-505.58464-315.8528z m237.75232 167.49568c59.41248 37.86752 109.7472 88.62208 147.57888 148.35712-37.8368 59.7248-88.17152 110.47424-147.57888 148.3776a462.7968 462.7968 0 0 1-249.28256 72.704 462.848 462.848 0 0 1-249.2928-72.704c-59.40736-37.90336-109.74208-88.6528-147.56864-148.3776 37.83168-59.6992 88.17152-110.48448 147.56864-148.35712 2.01216-1.29024 12.68224-6.528 22.95808-10.6752 9.46688-3.8144 20.1216-6.49728 21.72928-7.43424-8.43264 22.80448-13.0304 52.10112-13.0304 77.80864 0 118.15936 96.84992 213.90848 216.29952 213.90848s216.28928-95.74912 216.28928-213.90848c0-25.70752-4.59264-53.82144-12.99968-76.6208 1.54112 0.89088 13.17888 1.71008 23.1424 5.85216 11.19232 4.64896 22.10304 9.74336 24.18688 11.06944z m-220.4672 47.6928c0 52.33664-42.42944 94.75584-94.80192 94.75584-52.35712 0-94.79168-42.4192-94.79168-94.75584 0-52.3008 42.43456-94.75072 94.79168-94.75072 52.37248 0 94.80192 42.44992 94.80192 94.75072z" fill="#2a99c5" p-id="12356"></path></svg>