<?xml version="1.0" standalone="no"?><!DOCTYPE svg PUBLIC "-//W3C//DTD SVG 1.1//EN" "http://www.w3.org/Graphics/SVG/1.1/DTD/svg11.dtd"><svg t="1488266660763" class="icon" style="" viewBox="0 0 1024 1024" version="1.1" xmlns="http://www.w3.org/2000/svg" p-id="4791" xmlns:xlink="http://www.w3.org/1999/xlink" width="32" height="32"><defs><style type="text/css"></style></defs><path d="M511.99693 47.862078c-256.3249 0-464.113363 207.788463-464.113363 464.113363 0 256.30034 207.788463 464.113363 464.113363 464.113363s464.113363-207.813023 464.113363-464.113363C976.110293 255.650541 768.32183 47.862078 511.99693 47.862078L511.99693 47.862078zM717.635427 625.341395c0 0-14.69263 40.08495-41.648562 76.089979 0 0 48.157813 16.365736 44.091194 58.905598 0 0 1.611707 47.449685-102.850459 44.176129 0 0-73.488735-5.728468-95.52154-36.811394l-19.419282 0c-22.032806 31.095205-95.498004 36.811394-95.498004 36.811394-104.499006 3.273557-102.862739-44.176129-102.862739-44.176129-4.078899-42.539862 44.078914-58.905598 44.078914-58.905598-26.930349-36.005029-41.624003-76.089979-41.624003-76.089979-65.317635 105.548918-58.783825-14.729469-58.783825-14.729469 12.262278-71.180156 63.669088-117.811196 63.669088-117.811196-7.352455-64.646346 19.590174-76.089979 19.590174-76.089979 5.65479-199.983707 177.535439-196.491163 181.1385-196.392926 3.615341-0.097214 175.47143-3.590781 181.1385 196.380646 0 0 26.930349 11.455913 19.590174 76.089979 0 0 51.43137 46.63104 63.669088 117.811196l0 0C776.394692 610.611925 782.917246 730.890312 717.635427 625.341395L717.635427 625.341395z" p-id="4792" fill="#707070"></path></svg>