<?xml version="1.0" standalone="no"?><!DOCTYPE svg PUBLIC "-//W3C//DTD SVG 1.1//EN" "http://www.w3.org/Graphics/SVG/1.1/DTD/svg11.dtd"><svg t="1488274719220" class="icon" style="" viewBox="0 0 1024 1024" version="1.1" xmlns="http://www.w3.org/2000/svg" p-id="24193" xmlns:xlink="http://www.w3.org/1999/xlink" width="32" height="32"><defs><style type="text/css"></style></defs><path d="M914.64704 868.92544c0 23.98208-11.68384 45.66016-35.14368 64.83968-23.45984 19.29216-54.7328 34.74432-93.82912 46.30528-39.04512 11.66336-81.95072 20.41856-128.65536 26.35776-46.71488 5.84704-95.0272 8.86784-145.01888 8.86784-49.93024 0-98.26304-3.0208-144.96768-8.86784-46.71488-5.9392-89.61024-14.70464-128.7168-26.35776-39.09632-11.5712-70.36928-27.02336-93.78816-46.30528-23.45984-19.17952-35.18464-40.8576-35.18464-64.83968 0-18.76992 6.25664-35.64544 18.87232-50.66752 12.56448-15.01184 29.92128-27.72992 52.0704-38.07232a471.9616 471.9616 0 0 1 67.46112-25.42592c22.8352-6.66624 47.79008-12.29824 74.91584-16.88576 9.90208-1.87392 19.06688 0.11264 27.42272 6.05184 8.38656 5.94944 13.33248 13.76256 14.848 23.67488 1.92512 10.01472-0.0512 19.07712-5.9904 27.52512-5.888 8.32512-13.81376 13.35296-23.71584 14.78656a633.47712 633.47712 0 0 0-60.672 13.45536c-18.24768 5.20192-32.84992 10.00448-43.73504 14.592-10.84416 4.58752-20.1216 9.07264-27.72992 13.45536-7.60832 4.37248-12.82048 8.13056-15.68768 11.15136-2.8672 3.01056-4.53632 5.31456-4.90496 6.88128 1.19808 4.16768 6.30784 9.17504 15.48288 15.11424 9.12384 5.9392 23.04 12.19584 41.75872 18.8928 18.70848 6.656 40.3968 12.81024 65.20832 18.55488 24.71936 5.74464 55.35744 10.52672 91.76064 14.27456 36.48512 3.75808 74.8544 5.74464 115.2512 5.74464 40.3968 0 78.81728-1.87392 115.27168-5.74464 36.38272-3.85024 67.03104-8.52992 91.8016-14.27456 24.75008-5.632 46.4896-12.00128 65.20832-18.87232 18.65728-6.89152 32.58368-13.24032 41.75872-19.08736 9.1136-5.9392 14.2848-11.14112 15.43168-15.72864-0.43008-1.57696-2.03776-3.64544-4.90496-6.36928-2.80576-2.60096-8.06912-6.23616-15.67744-10.83392-7.60832-4.48512-16.88576-8.98048-27.74016-13.45536-10.89536-4.37248-25.42592-9.17504-43.776-14.2848a624.7936 624.7936 0 0 0-60.57984-13.45536c-9.96352-1.44384-17.82784-6.46144-23.76704-14.78656-5.888-8.448-7.92576-17.52064-6.00064-27.52512 1.50528-9.91232 6.42048-17.7152 14.85824-23.67488 8.38656-5.9392 17.52064-7.91552 27.42272-6.05184 27.05408 4.58752 52.02944 10.21952 74.9056 16.88576a473.8048 473.8048 0 0 1 67.51232 25.42592c22.09792 10.3424 39.46496 23.06048 52.0192 38.07232 12.57472 15.11424 18.87232 31.8976 18.87232 50.66752h0.07168v-0.01024zM695.02976 356.38272c0-20.224-7.14752-37.41696-21.44256-51.712-14.27456-14.3872-31.58016-21.47328-51.75296-21.47328H402.20672c-20.21376 0-37.41696 7.08608-51.712 21.47328-14.32576 14.29504-21.47328 31.488-21.47328 51.712v219.66848c-0.0512 9.91232 3.55328 18.46272 10.8544 25.76384 7.23968 7.19872 15.84128 10.8544 25.7536 10.8544h36.58752v219.55584c0 10.02496 3.61472 18.56512 10.8544 25.7536 7.29088 7.3216 15.85152 10.9568 25.81504 10.9568h146.37056c9.91232 0 18.52416-3.6352 25.7536-10.9568 7.23968-7.17824 10.8544-15.72864 10.8544-25.7536V612.6592h36.63872c9.91232 0 18.46272-3.64544 25.76384-10.8544 7.17824-7.30112 10.79296-15.85152 10.79296-25.76384V356.38272h-0.03072z m-54.8864-219.67872c0 35.56352-12.52352 65.80224-37.49888 90.70592-24.95488 24.92416-55.1936 37.43744-90.64448 37.43744-35.39968 0-65.6384-12.40064-90.61376-37.43744-25.01632-25.01632-37.4784-55.25504-37.4784-90.70592 0-35.34848 12.46208-65.57696 37.4784-90.60352C446.3616 21.08416 476.60032 8.57088 512 8.68352c35.45088 0 65.6896 12.40064 90.64448 37.4272 24.97536 25.01632 37.49888 55.15264 37.49888 90.59328z" p-id="24194" fill="#ffffff"></path></svg>