<?xml version="1.0" standalone="no"?><!DOCTYPE svg PUBLIC "-//W3C//DTD SVG 1.1//EN" "http://www.w3.org/Graphics/SVG/1.1/DTD/svg11.dtd"><svg t="1488274828676" class="icon" style="" viewBox="0 0 1024 1024" version="1.1" xmlns="http://www.w3.org/2000/svg" p-id="27173" xmlns:xlink="http://www.w3.org/1999/xlink" width="32" height="32"><defs><style type="text/css"></style></defs><path d="M955.80783 929.313383c-5.24138 4.464689-38.584822-0.873904-42.20119 3.008523-3.615344 3.931546-18.80634 20.773137-24.121398 23.927993-5.338594 3.153833-75.37374 2.960428-75.37374 2.960428s-11.430342-24.655564-21.112875-26.887397c-9.682533-2.135642-355.758895 0-355.758895 0s-5.678332 20.481494-12.060699 23.927993c-6.357808 3.445475-93.453532 2.960428-93.453532 2.960428s-20.651363-26.014516-30.16505-26.887397c-9.488105-0.873904-48.243819 0-48.243819 0l0-59.69872c0 0-143.322363 16.307424-135.653698-101.63078 0 0-60.522482-46.788676-30.164027-104.544136 0 0-64.793767-84.256047 24.121398-143.370458l63.313041-29.897967 156.791132-65.715766c0 0 16.549948 30.479206 15.070245 38.827346-1.479702 8.445354-7.57145 15.91959-24.121398 23.927993-16.549948 8.056498-111.55686 44.796297-111.55686 44.796297s-8.153712 5.630236-15.070245-3.008523c0 0-16.695257-16.889686-30.140491-8.930402-13.46877 7.959284-70.593872 20.189851-72.365217 74.646169 0 0 3.202952 37.176751 12.060699 32.905467 8.833188-4.271284 29.994158-28.537992 60.304518-29.896944 30.285801-1.358952 61.226518 9.026593 57.270412 41.836892-3.955082 32.810299-31.086027 54.164675-66.322588 50.767295-35.235538-3.349285-56.05677-16.016805-54.260865 8.977474 1.771345 24.996325 9.537223 42.274868 15.070245 44.79732 5.508463 2.524499 9.148367 12.861948 33.149014-17.9089 24.025207-30.770848 49.578212-23.830779 66.347147-14.900376 16.744376 8.833188 29.532646 26.11173 12.060699 47.757748-17.496507 21.646018-48.1947 20.870351-63.314064 17.958018-15.1429-3.008523-32.324228 1.747809-21.112875 26.887397 11.212377 25.044421 68.45823 53.582413 99.496161 32.810299 0 0 14.293555 2.86219 12.060699-8.931425-2.257416-11.842734-12.473092-123.472249 30.140491-191.226444 42.613583-67.754194 73.942133-100.757899 90.443985-116.483061 16.525388-15.725162 35.162883-53.824937 33.173573-125.510677l69.331111-2.912332c0 0 18.928114 45.816534 9.052176 92.604187 0 0 126.117498 36.691704 214.061544 5.920856 0 0-3.591808-96.681043 6.042629-101.534589 9.609878-4.901642 51.179687-4.271284 57.271435 5.920856 6.090725 10.290377 2.59613 66.299052 39.191643 95.613734 36.619049 29.411896 147.520992 89.012379 153.75805 337.607472C958.817377 830.787317 961.050233 924.896789 955.80783 929.313383zM147.804448 669.457817c29.121277 2.912332 53.945687-26.062612 30.164027-38.827346-28.902289-15.530734-57.294971 29.897967-57.294971 29.897967S118.683171 666.545485 147.804448 669.457817zM181.244082 761.96479c19.729363 1.989309 36.546394-18.491161 20.408839-27.470682-19.534935-11.066044-38.77925 21.063756-38.77925 21.063756S161.539278 759.926362 181.244082 761.96479zM596.748769 549.577376c-91.002711 0-164.799535 72.995574-164.799535 163.075262 0 90.080711 73.796824 163.174523 164.799535 163.174523 91.027271 0 164.799535-73.093811 164.799535-163.174523C761.548304 622.57295 687.77604 549.577376 596.748769 549.577376zM596.748769 829.185841c-65.011731 0-117.696703-52.174342-117.696703-116.53218 0-64.356814 52.683949-116.483061 117.696703-116.483061s117.721263 52.126247 117.721263 116.483061C714.470032 777.010476 661.761523 829.185841 596.748769 829.185841zM735.728216 218.376831c-15.604412-35.187442-45.234272-29.897967-45.234272-29.897967S376.377512 313.504493 340.777678 331.851369c-35.624394 18.443066-15.093782 53.824937-15.093782 53.824937s-0.752131 6.261617 3.033083 14.9014c3.761677 8.735974 0 11.988044 0 11.988044l-168.851831 74.694264-18.078769-35.866918c-20.845791-85.275261 1.650595-130.316128 99.496161-185.208374 97.821007-54.893269 407.957797-191.663396 479.376454-200.156846 71.395122-8.49345 138.348066 27.907635 162.785666 50.81539 24.461136 22.811565 33.173573 68.676194 33.173573 68.676194s-121.069524 49.749104-147.73998 53.727722C742.206774 243.324038 735.728216 218.376831 735.728216 218.376831z" p-id="27174" fill="#ffffff"></path></svg>