<?xml version="1.0" standalone="no"?><!DOCTYPE svg PUBLIC "-//W3C//DTD SVG 1.1//EN" "http://www.w3.org/Graphics/SVG/1.1/DTD/svg11.dtd"><svg t="1488275449319" class="icon" style="" viewBox="0 0 1024 1024" version="1.1" xmlns="http://www.w3.org/2000/svg" p-id="76039" xmlns:xlink="http://www.w3.org/1999/xlink" width="32" height="32"><defs><style type="text/css"></style></defs><path d="M770.512217 171.121356l-99.890035 0C650.401652 109.463064 585.96406 64.35061 509.333776 64.35061c-76.653821 0-141.097552 45.112454-161.2925 106.770745l-99.912547 0c-102.951767 0-186.449459 73.558319-186.449459 164.292833l0 459.948507c0 90.76112 83.497693 164.286694 186.449459 164.286694L770.512217 959.64939c102.94665 0 186.470949-73.525574 186.470949-164.286694L956.983165 335.414189C956.982142 244.679675 873.457844 171.121356 770.512217 171.121356L770.512217 171.121356zM509.333776 155.713434c35.45142 0 64.040549 25.308409 64.040549 56.489572 0 31.18628-28.589129 56.476269-64.040549 56.476269-35.477003 0-64.070224-25.289989-64.070224-56.476269C445.264575 181.021843 473.856773 155.713434 509.333776 155.713434L509.333776 155.713434zM813.986357 488.531496 616.086102 654.393058l-192.944384-83.461877L246.598886 709.311855c-5.334495 4.177136-12.198833 6.231935-18.668175 6.231935-7.625678 0-15.252379-2.778276-20.977777-8.270361-10.29753-10.154267-9.138124-25.711592 2.289136-34.771945l204.767664-160.39199 191.778838 82.886779 169.314197-142.139278c11.434423-9.399067 28.963659-9.003048 39.649022 0.828878C825.419757 463.546452 825.049321 479.123218 813.986357 488.531496L813.986357 488.531496zM813.986357 488.531496" p-id="76040" fill="#ffffff"></path></svg>