<?xml version="1.0" standalone="no"?><!DOCTYPE svg PUBLIC "-//W3C//DTD SVG 1.1//EN" "http://www.w3.org/Graphics/SVG/1.1/DTD/svg11.dtd"><svg t="1488274519887" class="icon" style="" viewBox="0 0 1024 1024" version="1.1" xmlns="http://www.w3.org/2000/svg" p-id="21788" xmlns:xlink="http://www.w3.org/1999/xlink" width="32" height="32"><defs><style type="text/css"></style></defs><path d="M518.752 1023.888c-282.784 3.688-514.984-222.488-518.704-505.184C-3.64 236 222.536 3.832 505.296 0.112c282.72-3.688 514.968 222.472 518.656 505.128C1027.72 787.952 801.472 1020.128 518.752 1023.888zM506.232 68.4C261.16 71.608 65.08 272.824 68.296 517.84c1.768 133.816 62.888 252.8 157.704 332.872 68.656-75.016 219.032-128.44 219.032-128.44l-0.952-69.784C367.36 629.952 349.176 514.16 349.176 514.16c-35.256-16.08-47.152-45.92-47.152-45.92-25.816-61.168 22.688-46.808 22.688-46.808-0.568-51.52-1.208-93.064-1.208-93.064 6.616-175.28 184.016-165.336 184.016-165.336s177.104-14.616 188.336 160.4c0 0 2.408 23.968 1.2 93.104 0 0 48.096-15.64 23.904 46.208 0 0-11.144 30.208-45.952 47.152 0 0-15.168 116.184-91.296 140.8l0.936 69.8c0 0 151.656 49.456 222.312 122.576 92.576-82.544 150.624-203.016 148.832-336.84C952.528 261.2 751.232 65.216 506.232 68.4z" p-id="21789" fill="#ffffff"></path></svg>