<?xml version="1.0" standalone="no"?><!DOCTYPE svg PUBLIC "-//W3C//DTD SVG 1.1//EN" "http://www.w3.org/Graphics/SVG/1.1/DTD/svg11.dtd"><svg t="1488275123958" class="icon" style="" viewBox="0 0 1025 1024" version="1.1" xmlns="http://www.w3.org/2000/svg" p-id="50180" xmlns:xlink="http://www.w3.org/1999/xlink" width="32.03125" height="32"><defs><style type="text/css"></style></defs><path d="M693.716114 356.907886c11.761371 0 23.405714 0.848457 34.933029 2.106514-31.392914-146.139429-187.626057-254.712686-365.9776-254.712686-199.358171 0-362.671543 135.899429-362.671543 308.458057 0 99.591314 54.330514 181.394286 145.144686 244.853029l-36.278857 109.099886 126.800457-63.575771c45.377829 9.0112 81.773714 18.197943 127.034514 18.197943 11.410286 0 22.674286-0.555886 33.850514-1.4336-7.080229-24.224914-11.176229-49.649371-11.176229-76.010057C385.375086 485.493029 521.450057 356.907886 693.716114 356.907886zM498.717257 258.545371c27.296914 0 45.407086 17.963886 45.407086 45.2608 0 27.179886-18.110171 45.377829-45.407086 45.377829-27.209143 0-54.4768-18.197943-54.4768-45.377829C444.240457 276.509257 471.537371 258.545371 498.717257 258.545371zM244.853029 349.213257c-27.179886 0-54.593829-18.197943-54.593829-45.377829 0-27.296914 27.4432-45.2608 54.593829-45.2608 27.209143 0 45.290057 17.963886 45.290057 45.2608C290.143086 330.986057 272.062171 349.213257 244.853029 349.213257z" p-id="50181" fill="#ffffff"></path><path d="M1024.760686 639.5904c0-145.027657-145.115429-263.197257-308.077714-263.197257-172.529371 0-308.487314 118.1696-308.487314 263.197257 0 145.261714 135.928686 263.197257 308.487314 263.197257 36.132571 0 72.557714-9.128229 108.836571-18.197943l99.474286 54.4768-27.296914-90.667886C970.517943 793.834057 1024.760686 721.364114 1024.760686 639.5904zM616.6528 594.212571c-18.051657 0-36.278857-17.963886-36.278857-36.278857 0-18.080914 18.2272-36.2496 36.278857-36.2496 27.4432 0 45.407086 18.168686 45.407086 36.2496C662.059886 576.219429 644.096 594.212571 616.6528 594.212571zM816.157257 594.212571c-17.905371 0-36.015543-17.963886-36.015543-36.278857 0-18.080914 18.110171-36.2496 36.015543-36.2496 27.209143 0 45.407086 18.168686 45.407086 36.2496C861.564343 576.219429 843.3664 594.212571 816.157257 594.212571z" p-id="50182" fill="#ffffff"></path></svg>